<?xml version="1.0" encoding="UTF-8" standalone="no"?>
<!-- Created with PhotoLine 21.90B4 (www.pl32.com) -->
<!DOCTYPE svg PUBLIC "-//W3C//DTD SVG 1.1//EN" "http://www.w3.org/Graphics/SVG/1.1/DTD/svg11.dtd">
<svg width="130" height="132" viewBox="0 0 130 132" version="1.1" xmlns="http://www.w3.org/2000/svg" xmlns:xlink="http://www.w3.org/1999/xlink">
  <g id="path30" transform="matrix(1.586721 0 0 -1.608896 -373.749603 167.324279)">
    <path fill="#333333" fill-rule="evenodd" d="M268.09 37.75 L279.32 37.75 L279.32 56.62 C279.32 57.63 279.39 58.64 279.69 59.36 C280.5 61.38 282.35 63.47 285.45 63.47 C289.52 63.47 291.14 60.37 291.14 55.83 L291.14 37.75 L302.38 37.75 L302.38 57.13 C302.38 67.51 296.83 72.34 289.44 72.34 C283.38 72.34 280.72 68.95 279.25 66.64 L279.32 66.64 L279.32 71.54 L268.09 71.54 C268.24 68.37 268.09 37.75 268.09 37.75 Z M239.33 95.04 C239.33 98 241.79 100.4 244.83 100.4 L308.2 100.4 C311.24 100.4 313.7 98 313.7 95.04 L313.7 30.92 C313.7 27.96 311.24 25.56 308.2 25.56 L244.83 25.56 C241.79 25.56 239.33 27.96 239.33 30.92 Z M261.87 37.75 L261.87 71.54 L250.64 71.54 L250.64 37.75 Z M256.26 76.16 C260.17 76.16 262.61 78.75 262.61 81.99 C262.54 85.31 260.17 87.83 256.33 87.83 C252.49 87.83 249.98 85.31 249.98 81.99 C249.98 78.75 252.41 76.16 256.18 76.16 L256.26 76.16 Z"/>
  </g>
</svg>
